<svg width="467" height="464" viewBox="0 0 467 464" fill="none" xmlns="http://www.w3.org/2000/svg">
<g opacity="0.5">
<path d="M166.648 328.327H146.81V314.441H206.324V321.384H166.648V328.327Z" stroke="white"/>
<path d="M99.199 356.101L99.6759 355.95L99.5657 355.601H99.199V356.101ZM79.361 356.101L78.9404 356.371L79.088 356.601H79.361V356.101ZM144.827 500.919L144.35 501.069L144.46 501.419H144.827V500.919ZM189.462 500.919V501.419H190.105L189.947 500.796L189.462 500.919ZM172.6 434.461V433.961H171.957L172.115 434.584L172.6 434.461ZM209.3 434.461L209.785 434.337L209.688 433.961H209.3V434.461ZM251.952 601.101L251.468 601.225L251.564 601.601H251.952V601.101ZM304.523 601.101V601.601H305.212L304.998 600.945L304.523 601.101ZM271.79 500.919V500.419H271.101L271.315 501.074L271.79 500.919ZM344.199 500.919V501.419H344.847L344.683 500.792L344.199 500.919ZM302.539 342.214L303.023 342.087L302.925 341.714H302.539V342.214ZM183.511 342.214V341.714H182.855L183.029 342.346L183.511 342.214ZM203.349 414.623V415.123H204.004L203.831 414.491L203.349 414.623ZM163.673 414.623L163.194 414.767L163.301 415.123H163.673V414.623ZM141.851 342.214L142.33 342.07L142.222 341.714H141.851V342.214ZM70.4338 342.214V341.714H69.518L70.0132 342.484L70.4338 342.214ZM266.83 363.044L267.312 362.911L267.21 362.544H266.83V363.044ZM236.081 363.044V362.544H235.434L235.597 363.17L236.081 363.044ZM299.563 481.081V481.581H300.22L300.045 480.947L299.563 481.081ZM266.83 481.081L266.346 481.207L266.444 481.581H266.83V481.081ZM99.199 355.601H79.361V356.601H99.199V355.601ZM145.303 500.768L99.6759 355.95L98.7221 356.251L144.35 501.069L145.303 500.768ZM189.462 500.419H144.827V501.419H189.462V500.419ZM172.115 434.584L188.978 501.042L189.947 500.796L173.084 434.338L172.115 434.584ZM209.3 433.961H172.6V434.961H209.3V433.961ZM252.436 600.977L209.785 434.337L208.816 434.585L251.468 601.225L252.436 600.977ZM304.523 600.601H251.952V601.601H304.523V600.601ZM271.315 501.074L304.048 601.256L304.998 600.945L272.265 500.763L271.315 501.074ZM344.199 500.419H271.79V501.419H344.199V500.419ZM302.055 342.341L343.715 501.046L344.683 500.792L303.023 342.087L302.055 342.341ZM183.511 342.714H302.539V341.714H183.511V342.714ZM203.831 414.491L183.993 342.082L183.029 342.346L202.867 414.755L203.831 414.491ZM163.673 415.123H203.349V414.123H163.673V415.123ZM141.372 342.358L163.194 414.767L164.151 414.479L142.33 342.07L141.372 342.358ZM70.4338 342.714H141.851V341.714H70.4338V342.714ZM79.7816 355.83L70.8544 341.944L70.0132 342.484L78.9404 356.371L79.7816 355.83ZM266.83 362.544H236.081V363.544H266.83V362.544ZM300.045 480.947L267.312 362.911L266.348 363.178L299.081 481.214L300.045 480.947ZM266.83 481.581H299.563V480.581H266.83V481.581ZM235.597 363.17L266.346 481.207L267.314 480.955L236.565 362.918L235.597 363.17Z" fill="white"/>
<path d="M69.4416 246.001L46.6277 185.494H190.454L262.863 126.972H441.405L414.624 186.486H284.684L216.243 246.001H69.4416Z" stroke="white"/>
<path d="M25.7976 126.972L1 63.4899L140.858 59.5223L213.267 1H491L467.194 67.4575H243.024L169.623 126.972H25.7976Z" stroke="white"/>
<path d="M46.6276 185.494C40.6761 170.285 28.1782 137.287 25.7976 126.971H169.624L243.024 67.4573H467.194L441.405 126.971H262.862L190.453 185.494H46.6276Z" stroke="white"/>
<path d="M234.097 301.546H96.2229L79.3606 275.757H220.211L234.097 301.546Z" stroke="white"/>
</g>
</svg>
