<svg width="35" height="36" viewBox="0 0 35 36" fill="none" xmlns="http://www.w3.org/2000/svg">
<path d="M18.4725 19.421H15.6306V10.8952H18.4725V19.421ZM18.4725 25.1048H15.6306V22.2629H18.4725V25.1048ZM17.0515 3.79041C15.1855 3.79041 13.3377 4.15795 11.6137 4.87205C9.88975 5.58615 8.32329 6.63282 7.00381 7.9523C4.339 10.6171 2.84192 14.2314 2.84192 18C2.84192 21.7686 4.339 25.3829 7.00381 28.0477C8.32329 29.3672 9.88975 30.4139 11.6137 31.128C13.3377 31.842 15.1855 32.2096 17.0515 32.2096C20.8201 32.2096 24.4344 30.7125 27.0992 28.0477C29.764 25.3829 31.2611 21.7686 31.2611 18C31.2611 16.134 30.8936 14.2862 30.1795 12.5622C29.4654 10.8382 28.4187 9.27178 27.0992 7.9523C25.7797 6.63282 24.2133 5.58615 22.4893 4.87205C20.7653 4.15795 18.9175 3.79041 17.0515 3.79041Z" fill="#F33737"/>
</svg>
