<svg width="17" height="16" viewBox="0 0 17 16" fill="none" xmlns="http://www.w3.org/2000/svg">
<path fill-rule="evenodd" clip-rule="evenodd" d="M4.91752 2.16666C5.19366 2.16666 5.41752 2.39051 5.41752 2.66666V3.77841C7.30268 3.61052 9.19903 3.61053 11.0842 3.77841V2.66666C11.0842 2.39051 11.308 2.16666 11.5842 2.16666C11.8603 2.16666 12.0842 2.39051 12.0842 2.66666V3.87761C13.0796 4.01835 13.8659 4.80564 13.999 5.80988L14.0567 6.24518C14.2994 8.07607 14.2784 9.93228 13.9945 11.7572C13.8538 12.6613 13.1194 13.3556 12.2089 13.4454L11.4135 13.5238C9.31017 13.7313 7.1915 13.7313 5.08814 13.5238L4.2928 13.4454C3.38231 13.3556 2.64787 12.6613 2.5072 11.7572C2.22322 9.93229 2.20226 8.07607 2.44495 6.24518L2.50265 5.80988C2.63577 4.80562 3.42214 4.01833 4.41752 3.87761V2.66666C4.41752 2.39051 4.64138 2.16666 4.91752 2.16666ZM5.2143 4.80186C7.23376 4.60271 9.26791 4.60271 11.2874 4.80186L11.891 4.86139C12.4688 4.91837 12.9314 5.36568 13.0077 5.94128L13.0654 6.37659C13.0855 6.52866 13.1038 6.68092 13.1201 6.83332H3.38156C3.39788 6.68092 3.41612 6.52866 3.43628 6.37659L3.49398 5.94129C3.57028 5.36568 4.03283 4.91837 4.61066 4.86139L5.2143 4.80186ZM3.30208 7.83332C3.23662 9.09204 3.30111 10.3555 3.4953 11.6035C3.56586 12.0569 3.93425 12.4052 4.39094 12.4502L5.18628 12.5287C7.22437 12.7297 9.2773 12.7297 11.3154 12.5287L12.1107 12.4502C12.5674 12.4052 12.9358 12.0569 13.0064 11.6035C13.2006 10.3555 13.265 9.09204 13.1996 7.83332H3.30208Z" fill="#232327"/>
<ellipse cx="5.58268" cy="9.33332" rx="0.666667" ry="0.666667" fill="#232327"/>
<ellipse cx="8.25065" cy="9.33332" rx="0.666667" ry="0.666667" fill="#232327"/>
<circle cx="10.9167" cy="9.33332" r="0.666667" fill="#232327"/>
<circle cx="10.9167" cy="11.3333" r="0.666667" fill="#232327"/>
<ellipse cx="8.25065" cy="11.3333" rx="0.666667" ry="0.666667" fill="#232327"/>
<ellipse cx="5.58268" cy="11.3333" rx="0.666667" ry="0.666667" fill="#232327"/>
</svg>
