<svg width="56" height="56" viewBox="0 0 56 56" fill="none" xmlns="http://www.w3.org/2000/svg">
<path d="M30.6488 27.9772L40.4787 18.1473C40.817 17.7971 41.0042 17.3279 40.9999 16.841C40.9957 16.3541 40.8004 15.8883 40.4561 15.5439C40.1117 15.1996 39.6459 15.0043 39.159 15.0001C38.6721 14.9958 38.2029 15.183 37.8527 15.5213L28.0228 25.3512L18.193 15.5213C17.8427 15.183 17.3736 14.9958 16.8866 15.0001C16.3997 15.0043 15.9339 15.1996 15.5896 15.5439C15.2453 15.8883 15.0499 16.3541 15.0457 16.841C15.0415 17.3279 15.2287 17.7971 15.567 18.1473L25.3968 27.9772L15.567 37.807C15.3896 37.9784 15.2481 38.1833 15.1508 38.4099C15.0534 38.6364 15.0022 38.8801 15.0001 39.1267C14.9979 39.3733 15.0449 39.6179 15.1383 39.8461C15.2317 40.0743 15.3696 40.2817 15.5439 40.4561C15.7183 40.6304 15.9257 40.7683 16.1539 40.8617C16.3821 40.9551 16.6267 41.0021 16.8733 40.9999C17.1199 40.9978 17.3636 40.9466 17.5901 40.8492C17.8167 40.7519 18.0216 40.6104 18.193 40.433L28.0228 30.6032L37.8527 40.433C38.2029 40.7713 38.6721 40.9585 39.159 40.9543C39.6459 40.9501 40.1117 40.7547 40.4561 40.4104C40.8004 40.0661 40.9957 39.6003 40.9999 39.1134C41.0042 38.6264 40.817 38.1573 40.4787 37.807L30.6488 27.9772Z" fill="white"/>
</svg>
