<svg width="33" height="32" viewBox="0 0 33 32" fill="none" xmlns="http://www.w3.org/2000/svg">
<g clip-path="url(#clip0_1291_1624)">
<path d="M16.5 32C25.3366 32 32.5 24.8366 32.5 16C32.5 7.16344 25.3366 0 16.5 0C7.66344 0 0.5 7.16344 0.5 16C0.5 24.8366 7.66344 32 16.5 32Z" fill="#F4F4FA"/>
<path d="M14.5001 10.1667C12.383 10.1667 10.6667 11.883 10.6667 14.0001V18.738C10.6667 19.0141 10.8906 19.238 11.1667 19.238C11.4429 19.238 11.6667 19.0141 11.6667 18.738V14.0001C11.6667 12.4353 12.9353 11.1667 14.5001 11.1667H19.1753C19.4515 11.1667 19.6753 10.9429 19.6753 10.6667C19.6753 10.3906 19.4515 10.1667 19.1753 10.1667H14.5001Z" fill="#232327"/>
<path fill-rule="evenodd" clip-rule="evenodd" d="M20.7684 12.5289C18.6078 12.2874 16.3924 12.2874 14.2317 12.5289C13.6162 12.5977 13.1216 13.0821 13.049 13.7024C12.7928 15.8934 12.7928 18.1068 13.049 20.2978C13.1216 20.918 13.6162 21.4024 14.2317 21.4712C16.3924 21.7127 18.6078 21.7127 20.7684 21.4712C21.384 21.4024 21.8786 20.918 21.9511 20.2978C22.2074 18.1068 22.2074 15.8934 21.9511 13.7024C21.8786 13.0821 21.384 12.5977 20.7684 12.5289ZM14.3428 13.5227C16.4296 13.2895 18.5706 13.2895 20.6574 13.5227C20.8156 13.5404 20.94 13.6656 20.9579 13.8186C21.2051 15.9324 21.2051 18.0678 20.9579 20.1816C20.94 20.3346 20.8156 20.4597 20.6574 20.4774C18.5706 20.7107 16.4296 20.7107 14.3428 20.4774C14.1846 20.4597 14.0602 20.3346 14.0423 20.1816C13.795 18.0678 13.795 15.9324 14.0423 13.8186C14.0602 13.6656 14.1846 13.5404 14.3428 13.5227Z" fill="#232327"/>
</g>
<defs>
<clipPath id="clip0_1291_1624">
<rect width="32" height="32" fill="white" transform="translate(0.5)"/>
</clipPath>
</defs>
</svg>
