<svg width="40" height="40" viewBox="0 0 40 40" fill="none" xmlns="http://www.w3.org/2000/svg">
<path fill-rule="evenodd" clip-rule="evenodd" d="M17.8965 5.41663C16.6072 5.41663 15.5316 6.40201 15.4191 7.68644C15.1837 10.3719 15.1241 13.0694 15.2405 15.7615C15.1 15.7709 14.9594 15.7807 14.8189 15.791L12.3364 15.972C10.7497 16.0876 9.86266 17.8569 10.7193 19.1975C12.5463 22.0567 14.9003 24.5424 17.6561 26.5219L18.6506 27.2364C19.457 27.8156 20.5431 27.8156 21.3495 27.2364L22.344 26.5219C25.0998 24.5424 27.4538 22.0567 29.2808 19.1975C30.1374 17.8569 29.2504 16.0876 27.6637 15.972L25.1812 15.791C25.0407 15.7807 24.9001 15.7709 24.7596 15.7615C24.876 13.0694 24.8164 10.3719 24.581 7.68643C24.4684 6.40201 23.3929 5.41663 22.1036 5.41663H17.8965ZM17.8025 16.8578C17.613 13.8791 17.6484 10.8902 17.9085 7.91663H22.0916C22.3517 10.8902 22.3871 13.8791 22.1976 16.8578C22.1763 17.1918 22.2898 17.5203 22.5128 17.7699C22.7357 18.0195 23.0493 18.1692 23.3835 18.1857C23.9224 18.2122 24.4611 18.2451 24.9994 18.2844L26.8024 18.4158C25.2031 20.7713 23.2006 22.8284 20.8855 24.4915L20.0001 25.1275L19.1146 24.4915C16.7994 22.8284 14.797 20.7713 13.1977 18.4158L15.0007 18.2844C15.539 18.2451 16.0777 18.2122 16.6166 18.1857C16.9508 18.1692 17.2644 18.0195 17.4873 17.7699C17.7102 17.5203 17.8238 17.1918 17.8025 16.8578Z" fill="#9497AA"/>
<path d="M9.58325 28.3333C9.58325 27.6429 9.02361 27.0833 8.33325 27.0833C7.6429 27.0833 7.08325 27.6429 7.08325 28.3333V31.6666C7.08325 33.2775 8.38909 34.5833 9.99992 34.5833H29.9999C31.6107 34.5833 32.9166 33.2775 32.9166 31.6666V28.3333C32.9166 27.6429 32.3569 27.0833 31.6666 27.0833C30.9762 27.0833 30.4166 27.6429 30.4166 28.3333V31.6666C30.4166 31.8967 30.23 32.0833 29.9999 32.0833H9.99992C9.7698 32.0833 9.58325 31.8967 9.58325 31.6666V28.3333Z" fill="#9497AA"/>
</svg>
