<svg width="36" height="36" viewBox="0 0 36 36" fill="none" xmlns="http://www.w3.org/2000/svg">
<rect x="0.948486" y="0.94873" width="34.103" height="34.103" rx="17.0515" fill="#F33737"/>
<path d="M20.2176 28.7434C20.6173 28.3437 20.8419 27.8015 20.8419 27.2362C20.8419 26.6709 20.6173 26.1288 20.2176 25.7291C19.8178 25.3294 19.2757 25.1048 18.7104 25.1048C18.1451 25.1048 17.603 25.3294 17.2033 25.7291C16.8035 26.1288 16.579 26.6709 16.579 27.2362C16.579 27.8015 16.8035 28.3437 17.2033 28.7434C17.603 29.1431 18.1451 29.3677 18.7104 29.3677C19.2757 29.3677 19.8178 29.1431 20.2176 28.7434Z" fill="white"/>
<path d="M19.7152 7.04851C19.4487 6.78203 19.0873 6.63232 18.7104 6.63232C18.3336 6.63232 17.9721 6.78203 17.7056 7.04851C17.4392 7.315 17.2895 7.67642 17.2895 8.05328V20.8419C17.2895 21.2188 17.4392 21.5802 17.7056 21.8467C17.9721 22.1132 18.3336 22.2629 18.7104 22.2629C19.0873 22.2629 19.4487 22.1132 19.7152 21.8467C19.9817 21.5802 20.1314 21.2188 20.1314 20.8419V8.05328C20.1314 7.67642 19.9817 7.315 19.7152 7.04851Z" fill="white"/>
</svg>
