<svg width="32" height="32" viewBox="0 0 32 32" fill="none" xmlns="http://www.w3.org/2000/svg">
<path fill-rule="evenodd" clip-rule="evenodd" d="M11 16C11 13.2386 13.2386 11 16 11C18.7614 11 21 13.2386 21 16C21 18.7614 18.7614 21 16 21C13.2386 21 11 18.7614 11 16ZM16 13C14.3431 13 13 14.3431 13 16C13 17.6569 14.3431 19 16 19C17.6569 19 19 17.6569 19 16C19 14.3431 17.6569 13 16 13Z" fill="#232327"/>
<path fill-rule="evenodd" clip-rule="evenodd" d="M5.76457 14.1951C5.20574 15.0004 5 15.6303 5 16C5 16.3697 5.20574 16.9996 5.76457 17.8049C6.30476 18.5833 7.1077 19.427 8.12356 20.2067C10.1597 21.7694 12.9513 23 16 23C19.0487 23 21.8403 21.7694 23.8764 20.2067C24.8923 19.427 25.6952 18.5833 26.2354 17.8049C26.7943 16.9996 27 16.3697 27 16C27 15.6303 26.7943 15.0004 26.2354 14.1951C25.6952 13.4167 24.8923 12.573 23.8764 11.7933C21.8403 10.2306 19.0487 9 16 9C12.9513 9 10.1597 10.2306 8.12356 11.7933C7.1077 12.573 6.30476 13.4167 5.76457 14.1951ZM6.90587 10.2067C9.21287 8.43611 12.4213 7 16 7C19.5787 7 22.7871 8.43611 25.0941 10.2067C26.2498 11.0937 27.2043 12.0833 27.8785 13.0549C28.5342 13.9996 29 15.0364 29 16C29 16.9636 28.5342 18.0004 27.8785 18.9451C27.2043 19.9167 26.2498 20.9063 25.0941 21.7933C22.7871 23.5639 19.5787 25 16 25C12.4213 25 9.21287 23.5639 6.90587 21.7933C5.75016 20.9063 4.79574 19.9167 4.12147 18.9451C3.46583 18.0004 3 16.9636 3 16C3 15.0364 3.46583 13.9996 4.12147 13.0549C4.79574 12.0833 5.75016 11.0937 6.90587 10.2067Z" fill="#232327"/>
</svg>
