<svg width="48" height="48" viewBox="0 0 48 48" fill="none" xmlns="http://www.w3.org/2000/svg">
<rect width="48" height="48" rx="4" fill="white"/>
<path fill-rule="evenodd" clip-rule="evenodd" d="M29.9857 17.4237C26.0076 16.9791 21.9922 16.9791 18.0141 17.4237C17.7449 17.4538 17.6153 17.7694 17.7856 17.98L21.3026 22.3275C22.5625 23.8849 23.2499 25.8275 23.2499 27.8307V30.7199L24.7499 31.8199V27.8307C24.7499 25.8275 25.4373 23.8849 26.6972 22.3275L30.2142 17.98C30.3845 17.7694 30.2549 17.4538 29.9857 17.4237ZM17.8475 15.933C21.9364 15.476 26.0634 15.476 30.1523 15.933C31.5993 16.0947 32.2961 17.7915 31.3804 18.9234L27.8633 23.2709C26.8194 24.5614 26.2499 26.1709 26.2499 27.8307V33.3C26.2499 33.5826 26.091 33.8413 25.8389 33.969C25.5868 34.0968 25.2843 34.0719 25.0564 33.9048L22.0564 31.7048C21.8637 31.5635 21.7499 31.3389 21.7499 31.1V27.8307C21.7499 26.1709 21.1804 24.5614 20.1365 23.2709L16.6194 18.9234C15.7037 17.7915 16.4005 16.0947 17.8475 15.933Z" fill="#232327"/>
</svg>
