<svg width="21" height="18" viewBox="0 0 21 18" fill="none" xmlns="http://www.w3.org/2000/svg">
<path d="M20.5 0.172532L19.9845 3.79374C18.9307 3.70089 18.0945 3.88659 17.4759 4.35084C16.8574 4.79189 16.4336 5.43024 16.2045 6.26591C15.9983 7.07836 15.9639 8.00687 16.1014 9.05145H20.5V18H12.012V8.70325C12.012 5.66237 12.7222 3.3643 14.1426 1.80904C15.563 0.230564 17.6821 -0.314939 20.5 0.172532ZM8.98797 0.172532L8.47251 3.79374C7.41867 3.70089 6.58247 3.88659 5.96392 4.35084C5.34536 4.79189 4.92153 5.43024 4.69244 6.26591C4.48625 7.07836 4.45189 8.00687 4.58935 9.05145H8.98797V18H0.5V8.70325C0.5 5.66237 1.21019 3.3643 2.63058 1.80904C4.05097 0.230564 6.1701 -0.314939 8.98797 0.172532Z" fill="#5B5F77"/>
</svg>
