<svg width="24" height="25" viewBox="0 0 24 25" fill="none" xmlns="http://www.w3.org/2000/svg">
<path fill-rule="evenodd" clip-rule="evenodd" d="M3.46008 17.3073C3.2385 17.0775 3.18664 16.7326 3.33085 16.4478L4.06097 15.0059C5.72124 11.7271 9.08419 9.66048 12.7594 9.66049H13.1633C13.1887 9.10714 13.2215 8.55406 13.2618 8.00138L13.3303 7.06241C13.3856 6.30389 14.2313 5.87987 14.8722 6.28937C16.9879 7.64127 18.8272 9.38321 20.292 11.4224L20.7522 12.063C20.94 12.3245 20.94 12.6766 20.7522 12.9381L20.292 13.5787C18.8272 15.6179 16.9879 17.3598 14.8722 18.7117C14.2313 19.1212 13.3856 18.6972 13.3303 17.9387L13.2618 16.9997C13.2137 16.3402 13.1762 15.68 13.1493 15.0196C10.9772 14.9559 8.80747 15.3939 6.81359 16.3141L4.31425 17.4676C4.02441 17.6014 3.68167 17.5371 3.46008 17.3073ZM5.67093 15.1894L6.18501 14.9522C8.61667 13.8299 11.2847 13.356 13.9322 13.5594C14.3145 13.5888 14.6131 13.9018 14.6244 14.285C14.6501 15.1542 14.6946 16.0229 14.7578 16.8907L14.7642 16.9776C16.427 15.8039 17.884 14.3598 19.0738 12.7036L19.2196 12.5005L19.0738 12.2975C17.884 10.6413 16.427 9.19718 14.7642 8.02347L14.7578 8.11043C14.7014 8.88499 14.6599 9.66037 14.6333 10.4361C14.6195 10.8401 14.288 11.1605 13.8838 11.1605L12.7594 11.1605C9.83854 11.1605 7.15077 12.7032 5.67093 15.1894Z" fill="#232327"/>
</svg>
