<svg width="33" height="32" viewBox="0 0 33 32" fill="none" xmlns="http://www.w3.org/2000/svg">
<g clip-path="url(#clip0_1291_1606)">
<path d="M16.5 32C25.3366 32 32.5 24.8366 32.5 16C32.5 7.16344 25.3366 0 16.5 0C7.66344 0 0.5 7.16344 0.5 16C0.5 24.8366 7.66344 32 16.5 32Z" fill="#40B3E0"/>
<path d="M25.5191 8.60244L22.4056 24.2998C22.4056 24.2998 21.9702 25.3884 20.7728 24.8659L13.5882 19.3577L10.9757 18.095L6.57794 16.6144C6.57794 16.6144 5.90303 16.375 5.83766 15.8525C5.7723 15.33 6.59973 15.047 6.59973 15.047L24.0819 8.189C24.0819 8.189 25.5189 7.55767 25.5189 8.60272" fill="white"/>
<path d="M13.037 24.1227C13.037 24.1227 12.8272 24.1031 12.5658 23.2756C12.3047 22.4483 10.9766 18.0941 10.9766 18.0941L21.5357 11.3886C21.5357 11.3886 22.1453 11.0185 22.1236 11.3886C22.1236 11.3886 22.2324 11.454 21.9057 11.7588C21.5792 12.0637 13.611 19.2263 13.611 19.2263" fill="#D2E5F1"/>
<path d="M16.342 21.4688L13.5003 24.0597C13.5003 24.0597 13.2781 24.2283 13.0352 24.1227L13.5793 19.3101" fill="#B5CFE4"/>
</g>
<defs>
<clipPath id="clip0_1291_1606">
<rect width="32" height="32" fill="white" transform="translate(0.5)"/>
</clipPath>
</defs>
</svg>
