<svg width="17" height="16" viewBox="0 0 17 16" fill="none" xmlns="http://www.w3.org/2000/svg">
<path d="M8.25065 14.6667C4.56865 14.6667 1.58398 11.682 1.58398 8.00001C1.58398 4.31801 4.56865 1.33334 8.25065 1.33334C11.9327 1.33334 14.9173 4.31801 14.9173 8.00001C14.9173 11.682 11.9327 14.6667 8.25065 14.6667ZM8.25065 13.3333C9.66514 13.3333 11.0217 12.7714 12.0219 11.7712C13.0221 10.7711 13.584 9.4145 13.584 8.00001C13.584 6.58552 13.0221 5.22897 12.0219 4.22877C11.0217 3.22858 9.66514 2.66668 8.25065 2.66668C6.83616 2.66668 5.47961 3.22858 4.47941 4.22877C3.47922 5.22897 2.91732 6.58552 2.91732 8.00001C2.91732 9.4145 3.47922 10.7711 4.47941 11.7712C5.47961 12.7714 6.83616 13.3333 8.25065 13.3333ZM8.91732 8.00001H11.584V9.33334H7.58398V4.66668H8.91732V8.00001Z" fill="#232327"/>
</svg>
