<svg width="33" height="32" viewBox="0 0 33 32" fill="none" xmlns="http://www.w3.org/2000/svg">
<g clip-path="url(#clip0_138_189)">
<path d="M16.5 32C25.3366 32 32.5 24.8366 32.5 16C32.5 7.16344 25.3366 0 16.5 0C7.66344 0 0.5 7.16344 0.5 16C0.5 24.8366 7.66344 32 16.5 32Z" fill="#0082DA"/>
<path fill-rule="evenodd" clip-rule="evenodd" d="M15.8962 23.0174H17.152C17.152 23.0174 17.5313 22.9758 17.725 22.767C17.9033 22.5753 17.8975 22.2154 17.8975 22.2154C17.8975 22.2154 17.873 20.5303 18.6551 20.2822C19.426 20.0378 20.416 21.9108 21.4653 22.631C22.2588 23.176 22.8617 23.0565 22.8617 23.0565L25.6674 23.0174C25.6674 23.0174 27.1351 22.927 26.4392 21.773C26.3821 21.6786 26.0339 20.9194 24.3531 19.3593C22.5939 17.7264 22.8295 17.9905 24.9486 15.166C26.2392 13.4459 26.7552 12.3957 26.594 11.9459C26.4403 11.5175 25.4911 11.6308 25.4911 11.6308L22.3321 11.6505C22.3321 11.6505 22.0979 11.6185 21.9242 11.7223C21.7545 11.8242 21.6453 12.0615 21.6453 12.0615C21.6453 12.0615 21.1453 13.3926 20.4785 14.5246C19.0718 16.9132 18.5093 17.0393 18.2794 16.891C17.7447 16.5453 17.8782 15.5023 17.8782 14.7613C17.8782 12.4465 18.2293 11.4813 17.1945 11.2315C16.8511 11.1485 16.5984 11.0937 15.7202 11.0849C14.593 11.0732 13.639 11.0883 13.0988 11.353C12.7394 11.529 12.4622 11.9211 12.631 11.9437C12.8398 11.9716 13.3127 12.0712 13.5634 12.4126C13.8871 12.8529 13.8757 13.8421 13.8757 13.8421C13.8757 13.8421 14.0617 16.567 13.4413 16.9055C13.0155 17.1377 12.4314 16.6637 11.1773 14.4966C10.5347 13.3866 10.0496 12.1596 10.0496 12.1596C10.0496 12.1596 9.95601 11.9303 9.78916 11.8076C9.58666 11.659 9.30373 11.6117 9.30373 11.6117L6.30184 11.6313C6.30184 11.6313 5.8512 11.6439 5.68577 11.8398C5.5386 12.0141 5.67408 12.3746 5.67408 12.3746C5.67408 12.3746 8.02425 17.873 10.6853 20.6439C13.1253 23.1843 15.8962 23.0174 15.8962 23.0174Z" fill="white"/>
</g>
<defs>
<clipPath id="clip0_138_189">
<rect width="32" height="32" fill="white" transform="translate(0.5)"/>
</clipPath>
</defs>
</svg>
