<svg width="36" height="36" viewBox="0 0 36 36" fill="none" xmlns="http://www.w3.org/2000/svg">
<rect x="0.948486" y="0.94873" width="34.103" height="34.103" rx="17.0515" fill="#FFB424"/>
<path d="M12.3162 14.5718C12.3653 13.0522 12.8897 11.8249 13.8892 10.8898C14.8969 9.94634 16.2897 9.47461 18.0676 9.47461C19.7389 9.47461 21.0908 9.91711 22.1231 10.8021C23.1636 11.6871 23.6838 12.8226 23.6838 14.2086C23.6838 16.0036 22.8154 17.4272 21.0785 18.4792C20.2756 18.9551 19.7308 19.3934 19.444 19.7941C19.1572 20.1949 19.0139 20.7084 19.0139 21.3346V22.0609H16.1627L16.1504 21.1718C16.0931 20.2617 16.2447 19.4978 16.6052 18.8799C16.9738 18.2621 17.5883 17.6943 18.4486 17.1767C19.2187 16.7008 19.7512 16.2625 20.0462 15.8617C20.3411 15.4526 20.4886 14.9391 20.4886 14.3213C20.4886 13.6534 20.251 13.1065 19.7758 12.6807C19.3006 12.2465 18.678 12.0294 17.9078 12.0294C17.1213 12.0294 16.4864 12.259 16.003 12.7182C15.5196 13.1775 15.2533 13.7953 15.2042 14.5718H12.3162ZM18.891 27.4336C18.5469 27.7759 18.1249 27.9471 17.6252 27.9471C17.1254 27.9471 16.6994 27.7759 16.3471 27.4336C16.003 27.0829 15.8309 26.6613 15.8309 26.1687C15.8309 25.6761 16.003 25.2587 16.3471 24.9163C16.6994 24.574 17.1254 24.4029 17.6252 24.4029C18.1249 24.4029 18.5469 24.574 18.891 24.9163C19.2351 25.2587 19.4071 25.6761 19.4071 26.1687C19.4071 26.6613 19.2351 27.0829 18.891 27.4336Z" fill="white"/>
</svg>
