<svg width="33" height="32" viewBox="0 0 33 32" fill="none" xmlns="http://www.w3.org/2000/svg">
<g clip-path="url(#clip0_138_184)">
<path d="M16.504 0H16.496C7.674 0 0.5 7.176 0.5 16C0.5 19.5 1.628 22.744 3.546 25.378L1.552 31.322L7.702 29.356C10.232 31.032 13.25 32 16.504 32C25.326 32 32.5 24.822 32.5 16C32.5 7.178 25.326 0 16.504 0Z" fill="#67E383"/>
<path d="M25.8141 22.594C25.4281 23.684 23.8961 24.588 22.6741 24.852C21.8381 25.03 20.7461 25.172 17.0701 23.648C12.3681 21.7 9.3401 16.922 9.1041 16.612C8.8781 16.302 7.2041 14.082 7.2041 11.786C7.2041 9.48999 8.3701 8.37199 8.8401 7.89199C9.2261 7.49799 9.8641 7.31799 10.4761 7.31799C10.6741 7.31799 10.8521 7.32799 11.0121 7.33599C11.4821 7.35599 11.7181 7.38399 12.0281 8.12599C12.4141 9.05599 13.3541 11.352 13.4661 11.588C13.5801 11.824 13.6941 12.144 13.5341 12.454C13.3841 12.774 13.2521 12.916 13.0161 13.188C12.7801 13.46 12.5561 13.668 12.3201 13.96C12.1041 14.214 11.8601 14.486 12.1321 14.956C12.4041 15.416 13.3441 16.95 14.7281 18.182C16.5141 19.772 17.9621 20.28 18.4801 20.496C18.8661 20.656 19.3261 20.618 19.6081 20.318C19.9661 19.932 20.4081 19.292 20.8581 18.662C21.1781 18.21 21.5821 18.154 22.0061 18.314C22.4381 18.464 24.7241 19.594 25.1941 19.828C25.6641 20.064 25.9741 20.176 26.0881 20.374C26.2001 20.572 26.2001 21.502 25.8141 22.594Z" fill="#FAFAFA"/>
</g>
<defs>
<clipPath id="clip0_138_184">
<rect width="32" height="32" fill="white" transform="translate(0.5)"/>
</clipPath>
</defs>
</svg>
